<?xml version="1.0" encoding="UTF-8" standalone="no"?>
<!-- Generator: Gravit.io --><svg xmlns="http://www.w3.org/2000/svg" xmlns:xlink="http://www.w3.org/1999/xlink" style="isolation:isolate" viewBox="289.459 427.465 18 18" width="18pt" height="18pt"><g><path d=" M 291.459 427.465 C 290.365 427.465 289.459 428.371 289.459 429.465 L 289.459 443.465 C 289.459 444.558 290.365 445.465 291.459 445.465 L 305.459 445.465 C 306.552 445.465 307.459 444.558 307.459 443.465 L 307.459 431.938 L 305.459 431.938 L 305.459 443.465 L 291.459 443.465 L 291.459 429.465 L 302.782 429.465 L 302.782 427.465 L 291.459 427.465 Z "/><path d=" M 301.713 440.157 L 301.719 438.157 L 298.134 438.144 L 307.459 428.883 L 306.049 427.465 L 296.724 436.725 L 296.737 433.139 L 294.737 433.133 L 294.713 440.132 L 301.713 440.157 Z "/></g></svg>